<?xml version="1.0" encoding="UTF-8" standalone="no"?>
<!DOCTYPE svg PUBLIC "-//W3C//DTD SVG 1.1//EN"
 "http://www.w3.org/Graphics/SVG/1.1/DTD/svg11.dtd">
<!-- Generated by graphviz version 2.42.3 (20191010.1750)
 -->
<!-- Title: snakemake_dag Pages: 1 -->
<svg width="685pt" height="548pt"
 viewBox="0.00 0.00 685.00 548.00" xmlns="http://www.w3.org/2000/svg" xmlns:xlink="http://www.w3.org/1999/xlink">
<g id="graph0" class="graph" transform="scale(1 1) rotate(0) translate(4 544)">
<title>snakemake_dag</title>
<polygon fill="white" stroke="transparent" points="-4,4 -4,-544 681,-544 681,4 -4,4"/>
<!-- 0 -->
<g id="node1" class="node">
<title>0</title>
<path fill="none" stroke="#56c1d8" stroke-width="2" stroke-dasharray="5,2" d="M353.5,-36C353.5,-36 323.5,-36 323.5,-36 317.5,-36 311.5,-30 311.5,-24 311.5,-24 311.5,-12 311.5,-12 311.5,-6 317.5,0 323.5,0 323.5,0 353.5,0 353.5,0 359.5,0 365.5,-6 365.5,-12 365.5,-12 365.5,-24 365.5,-24 365.5,-30 359.5,-36 353.5,-36"/>
<text text-anchor="middle" x="338.5" y="-15.5" font-family="sans" font-size="10.00">all</text>
</g>
<!-- 1 -->
<g id="node2" class="node">
<title>1</title>
<path fill="none" stroke="#56d89a" stroke-width="2" stroke-dasharray="5,2" d="M252,-108C252,-108 187,-108 187,-108 181,-108 175,-102 175,-96 175,-96 175,-84 175,-84 175,-78 181,-72 187,-72 187,-72 252,-72 252,-72 258,-72 264,-78 264,-84 264,-84 264,-96 264,-96 264,-102 258,-108 252,-108"/>
<text text-anchor="middle" x="219.5" y="-87.5" font-family="sans" font-size="10.00">sourmash_plot</text>
</g>
<!-- 1&#45;&gt;0 -->
<g id="edge1" class="edge">
<title>1&#45;&gt;0</title>
<path fill="none" stroke="grey" stroke-width="2" d="M248.61,-71.88C264.9,-62.29 285.34,-50.27 302.62,-40.11"/>
<polygon fill="grey" stroke="grey" stroke-width="2" points="304.48,-43.07 311.32,-34.99 300.93,-37.04 304.48,-43.07"/>
</g>
<!-- 2 -->
<g id="node3" class="node">
<title>2</title>
<path fill="none" stroke="#56d89a" stroke-width="2" stroke-dasharray="5,2" d="M371,-108C371,-108 306,-108 306,-108 300,-108 294,-102 294,-96 294,-96 294,-84 294,-84 294,-78 300,-72 306,-72 306,-72 371,-72 371,-72 377,-72 383,-78 383,-84 383,-84 383,-96 383,-96 383,-102 377,-108 371,-108"/>
<text text-anchor="middle" x="338.5" y="-87.5" font-family="sans" font-size="10.00">sourmash_plot</text>
</g>
<!-- 2&#45;&gt;0 -->
<g id="edge2" class="edge">
<title>2&#45;&gt;0</title>
<path fill="none" stroke="grey" stroke-width="2" d="M338.5,-71.7C338.5,-63.98 338.5,-54.71 338.5,-46.11"/>
<polygon fill="grey" stroke="grey" stroke-width="2" points="342,-46.1 338.5,-36.1 335,-46.1 342,-46.1"/>
</g>
<!-- 3 -->
<g id="node4" class="node">
<title>3</title>
<path fill="none" stroke="#56d89a" stroke-width="2" stroke-dasharray="5,2" d="M490,-108C490,-108 425,-108 425,-108 419,-108 413,-102 413,-96 413,-96 413,-84 413,-84 413,-78 419,-72 425,-72 425,-72 490,-72 490,-72 496,-72 502,-78 502,-84 502,-84 502,-96 502,-96 502,-102 496,-108 490,-108"/>
<text text-anchor="middle" x="457.5" y="-87.5" font-family="sans" font-size="10.00">sourmash_plot</text>
</g>
<!-- 3&#45;&gt;0 -->
<g id="edge3" class="edge">
<title>3&#45;&gt;0</title>
<path fill="none" stroke="grey" stroke-width="2" d="M428.39,-71.88C412.1,-62.29 391.66,-50.27 374.38,-40.11"/>
<polygon fill="grey" stroke="grey" stroke-width="2" points="376.07,-37.04 365.68,-34.99 372.52,-43.07 376.07,-37.04"/>
</g>
<!-- 4 -->
<g id="node5" class="node">
<title>4</title>
<path fill="none" stroke="#568ad8" stroke-width="2" stroke-dasharray="5,2" d="M252,-180C252,-180 163,-180 163,-180 157,-180 151,-174 151,-168 151,-168 151,-156 151,-156 151,-150 157,-144 163,-144 163,-144 252,-144 252,-144 258,-144 264,-150 264,-156 264,-156 264,-168 264,-168 264,-174 258,-180 252,-180"/>
<text text-anchor="middle" x="207.5" y="-165" font-family="sans" font-size="10.00">sourmash_compare</text>
<text text-anchor="middle" x="207.5" y="-154" font-family="sans" font-size="10.00">ksize: 21</text>
</g>
<!-- 4&#45;&gt;1 -->
<g id="edge4" class="edge">
<title>4&#45;&gt;1</title>
<path fill="none" stroke="grey" stroke-width="2" d="M210.47,-143.7C211.79,-135.98 213.38,-126.71 214.85,-118.11"/>
<polygon fill="grey" stroke="grey" stroke-width="2" points="218.33,-118.55 216.57,-108.1 211.43,-117.37 218.33,-118.55"/>
</g>
<!-- 5 -->
<g id="node6" class="node">
<title>5</title>
<path fill="none" stroke="#568ad8" stroke-width="2" stroke-dasharray="5,2" d="M383,-180C383,-180 294,-180 294,-180 288,-180 282,-174 282,-168 282,-168 282,-156 282,-156 282,-150 288,-144 294,-144 294,-144 383,-144 383,-144 389,-144 395,-150 395,-156 395,-156 395,-168 395,-168 395,-174 389,-180 383,-180"/>
<text text-anchor="middle" x="338.5" y="-165" font-family="sans" font-size="10.00">sourmash_compare</text>
<text text-anchor="middle" x="338.5" y="-154" font-family="sans" font-size="10.00">ksize: 51</text>
</g>
<!-- 5&#45;&gt;2 -->
<g id="edge5" class="edge">
<title>5&#45;&gt;2</title>
<path fill="none" stroke="grey" stroke-width="2" d="M338.5,-143.7C338.5,-135.98 338.5,-126.71 338.5,-118.11"/>
<polygon fill="grey" stroke="grey" stroke-width="2" points="342,-118.1 338.5,-108.1 335,-118.1 342,-118.1"/>
</g>
<!-- 6 -->
<g id="node7" class="node">
<title>6</title>
<path fill="none" stroke="#568ad8" stroke-width="2" stroke-dasharray="5,2" d="M514,-180C514,-180 425,-180 425,-180 419,-180 413,-174 413,-168 413,-168 413,-156 413,-156 413,-150 419,-144 425,-144 425,-144 514,-144 514,-144 520,-144 526,-150 526,-156 526,-156 526,-168 526,-168 526,-174 520,-180 514,-180"/>
<text text-anchor="middle" x="469.5" y="-165" font-family="sans" font-size="10.00">sourmash_compare</text>
<text text-anchor="middle" x="469.5" y="-154" font-family="sans" font-size="10.00">ksize: 31</text>
</g>
<!-- 6&#45;&gt;3 -->
<g id="edge6" class="edge">
<title>6&#45;&gt;3</title>
<path fill="none" stroke="grey" stroke-width="2" d="M466.53,-143.7C465.21,-135.98 463.62,-126.71 462.15,-118.11"/>
<polygon fill="grey" stroke="grey" stroke-width="2" points="465.57,-117.37 460.43,-108.1 458.67,-118.55 465.57,-117.37"/>
</g>
<!-- 7 -->
<g id="node8" class="node">
<title>7</title>
<path fill="none" stroke="#56d863" stroke-width="2" stroke-dasharray="5,2" d="M121,-252C121,-252 32,-252 32,-252 26,-252 20,-246 20,-240 20,-240 20,-228 20,-228 20,-222 26,-216 32,-216 32,-216 121,-216 121,-216 127,-216 133,-222 133,-228 133,-228 133,-240 133,-240 133,-246 127,-252 121,-252"/>
<text text-anchor="middle" x="76.5" y="-231.5" font-family="sans" font-size="10.00">sourmash_compute</text>
</g>
<!-- 7&#45;&gt;4 -->
<g id="edge7" class="edge">
<title>7&#45;&gt;4</title>
<path fill="none" stroke="grey" stroke-width="2" d="M108.55,-215.88C125.99,-206.55 147.77,-194.92 166.44,-184.94"/>
<polygon fill="grey" stroke="grey" stroke-width="2" points="168.16,-187.99 175.33,-180.19 164.86,-181.82 168.16,-187.99"/>
</g>
<!-- 7&#45;&gt;5 -->
<g id="edge12" class="edge">
<title>7&#45;&gt;5</title>
<path fill="none" stroke="grey" stroke-width="2" d="M133.03,-217.9C173.78,-207.01 228.93,-192.27 271.83,-180.81"/>
<polygon fill="grey" stroke="grey" stroke-width="2" points="272.86,-184.16 281.62,-178.2 271.06,-177.4 272.86,-184.16"/>
</g>
<!-- 7&#45;&gt;6 -->
<g id="edge17" class="edge">
<title>7&#45;&gt;6</title>
<path fill="none" stroke="grey" stroke-width="2" d="M133.13,-217.76C135.95,-217.14 138.75,-216.54 141.5,-216 254.06,-193.66 286.99,-202.45 402.9,-180.19"/>
<polygon fill="grey" stroke="grey" stroke-width="2" points="403.73,-183.59 412.87,-178.24 402.39,-176.72 403.73,-183.59"/>
</g>
<!-- 8 -->
<g id="node9" class="node">
<title>8</title>
<path fill="none" stroke="#56d863" stroke-width="2" stroke-dasharray="5,2" d="M252,-252C252,-252 163,-252 163,-252 157,-252 151,-246 151,-240 151,-240 151,-228 151,-228 151,-222 157,-216 163,-216 163,-216 252,-216 252,-216 258,-216 264,-222 264,-228 264,-228 264,-240 264,-240 264,-246 258,-252 252,-252"/>
<text text-anchor="middle" x="207.5" y="-231.5" font-family="sans" font-size="10.00">sourmash_compute</text>
</g>
<!-- 8&#45;&gt;4 -->
<g id="edge8" class="edge">
<title>8&#45;&gt;4</title>
<path fill="none" stroke="grey" stroke-width="2" d="M207.5,-215.7C207.5,-207.98 207.5,-198.71 207.5,-190.11"/>
<polygon fill="grey" stroke="grey" stroke-width="2" points="211,-190.1 207.5,-180.1 204,-190.1 211,-190.1"/>
</g>
<!-- 8&#45;&gt;5 -->
<g id="edge13" class="edge">
<title>8&#45;&gt;5</title>
<path fill="none" stroke="grey" stroke-width="2" d="M239.55,-215.88C256.99,-206.55 278.77,-194.92 297.44,-184.94"/>
<polygon fill="grey" stroke="grey" stroke-width="2" points="299.16,-187.99 306.33,-180.19 295.86,-181.82 299.16,-187.99"/>
</g>
<!-- 8&#45;&gt;6 -->
<g id="edge18" class="edge">
<title>8&#45;&gt;6</title>
<path fill="none" stroke="grey" stroke-width="2" d="M264.03,-217.9C304.78,-207.01 359.93,-192.27 402.83,-180.81"/>
<polygon fill="grey" stroke="grey" stroke-width="2" points="403.86,-184.16 412.62,-178.2 402.06,-177.4 403.86,-184.16"/>
</g>
<!-- 9 -->
<g id="node10" class="node">
<title>9</title>
<path fill="none" stroke="#56d863" stroke-width="2" stroke-dasharray="5,2" d="M383,-252C383,-252 294,-252 294,-252 288,-252 282,-246 282,-240 282,-240 282,-228 282,-228 282,-222 288,-216 294,-216 294,-216 383,-216 383,-216 389,-216 395,-222 395,-228 395,-228 395,-240 395,-240 395,-246 389,-252 383,-252"/>
<text text-anchor="middle" x="338.5" y="-231.5" font-family="sans" font-size="10.00">sourmash_compute</text>
</g>
<!-- 9&#45;&gt;4 -->
<g id="edge9" class="edge">
<title>9&#45;&gt;4</title>
<path fill="none" stroke="grey" stroke-width="2" d="M306.45,-215.88C289.01,-206.55 267.23,-194.92 248.56,-184.94"/>
<polygon fill="grey" stroke="grey" stroke-width="2" points="250.14,-181.82 239.67,-180.19 246.84,-187.99 250.14,-181.82"/>
</g>
<!-- 9&#45;&gt;5 -->
<g id="edge14" class="edge">
<title>9&#45;&gt;5</title>
<path fill="none" stroke="grey" stroke-width="2" d="M338.5,-215.7C338.5,-207.98 338.5,-198.71 338.5,-190.11"/>
<polygon fill="grey" stroke="grey" stroke-width="2" points="342,-190.1 338.5,-180.1 335,-190.1 342,-190.1"/>
</g>
<!-- 9&#45;&gt;6 -->
<g id="edge19" class="edge">
<title>9&#45;&gt;6</title>
<path fill="none" stroke="grey" stroke-width="2" d="M370.55,-215.88C387.99,-206.55 409.77,-194.92 428.44,-184.94"/>
<polygon fill="grey" stroke="grey" stroke-width="2" points="430.16,-187.99 437.33,-180.19 426.86,-181.82 430.16,-187.99"/>
</g>
<!-- 10 -->
<g id="node11" class="node">
<title>10</title>
<path fill="none" stroke="#56d863" stroke-width="2" stroke-dasharray="5,2" d="M514,-252C514,-252 425,-252 425,-252 419,-252 413,-246 413,-240 413,-240 413,-228 413,-228 413,-222 419,-216 425,-216 425,-216 514,-216 514,-216 520,-216 526,-222 526,-228 526,-228 526,-240 526,-240 526,-246 520,-252 514,-252"/>
<text text-anchor="middle" x="469.5" y="-231.5" font-family="sans" font-size="10.00">sourmash_compute</text>
</g>
<!-- 10&#45;&gt;4 -->
<g id="edge10" class="edge">
<title>10&#45;&gt;4</title>
<path fill="none" stroke="grey" stroke-width="2" d="M412.97,-217.9C372.22,-207.01 317.07,-192.27 274.17,-180.81"/>
<polygon fill="grey" stroke="grey" stroke-width="2" points="274.94,-177.4 264.38,-178.2 273.14,-184.16 274.94,-177.4"/>
</g>
<!-- 10&#45;&gt;5 -->
<g id="edge15" class="edge">
<title>10&#45;&gt;5</title>
<path fill="none" stroke="grey" stroke-width="2" d="M437.45,-215.88C420.01,-206.55 398.23,-194.92 379.56,-184.94"/>
<polygon fill="grey" stroke="grey" stroke-width="2" points="381.14,-181.82 370.67,-180.19 377.84,-187.99 381.14,-181.82"/>
</g>
<!-- 10&#45;&gt;6 -->
<g id="edge20" class="edge">
<title>10&#45;&gt;6</title>
<path fill="none" stroke="grey" stroke-width="2" d="M469.5,-215.7C469.5,-207.98 469.5,-198.71 469.5,-190.11"/>
<polygon fill="grey" stroke="grey" stroke-width="2" points="473,-190.1 469.5,-180.1 466,-190.1 473,-190.1"/>
</g>
<!-- 11 -->
<g id="node12" class="node">
<title>11</title>
<path fill="none" stroke="#56d863" stroke-width="2" stroke-dasharray="5,2" d="M645,-252C645,-252 556,-252 556,-252 550,-252 544,-246 544,-240 544,-240 544,-228 544,-228 544,-222 550,-216 556,-216 556,-216 645,-216 645,-216 651,-216 657,-222 657,-228 657,-228 657,-240 657,-240 657,-246 651,-252 645,-252"/>
<text text-anchor="middle" x="600.5" y="-231.5" font-family="sans" font-size="10.00">sourmash_compute</text>
</g>
<!-- 11&#45;&gt;4 -->
<g id="edge11" class="edge">
<title>11&#45;&gt;4</title>
<path fill="none" stroke="grey" stroke-width="2" d="M543.87,-217.76C541.05,-217.14 538.25,-216.55 535.5,-216 423.37,-193.72 390.61,-202.2 274.3,-180.02"/>
<polygon fill="grey" stroke="grey" stroke-width="2" points="274.77,-176.54 264.29,-178.07 273.44,-183.41 274.77,-176.54"/>
</g>
<!-- 11&#45;&gt;5 -->
<g id="edge16" class="edge">
<title>11&#45;&gt;5</title>
<path fill="none" stroke="grey" stroke-width="2" d="M543.97,-217.9C503.22,-207.01 448.07,-192.27 405.17,-180.81"/>
<polygon fill="grey" stroke="grey" stroke-width="2" points="405.94,-177.4 395.38,-178.2 404.14,-184.16 405.94,-177.4"/>
</g>
<!-- 11&#45;&gt;6 -->
<g id="edge21" class="edge">
<title>11&#45;&gt;6</title>
<path fill="none" stroke="grey" stroke-width="2" d="M568.45,-215.88C551.01,-206.55 529.23,-194.92 510.56,-184.94"/>
<polygon fill="grey" stroke="grey" stroke-width="2" points="512.14,-181.82 501.67,-180.19 508.84,-187.99 512.14,-181.82"/>
</g>
<!-- 12 -->
<g id="node13" class="node">
<title>12</title>
<path fill="none" stroke="#d8ac56" stroke-width="2" stroke-dasharray="5,2" d="M87.5,-324C87.5,-324 57.5,-324 57.5,-324 51.5,-324 45.5,-318 45.5,-312 45.5,-312 45.5,-300 45.5,-300 45.5,-294 51.5,-288 57.5,-288 57.5,-288 87.5,-288 87.5,-288 93.5,-288 99.5,-294 99.5,-300 99.5,-300 99.5,-312 99.5,-312 99.5,-318 93.5,-324 87.5,-324"/>
<text text-anchor="middle" x="72.5" y="-303.5" font-family="sans" font-size="10.00">fastp</text>
</g>
<!-- 12&#45;&gt;7 -->
<g id="edge22" class="edge">
<title>12&#45;&gt;7</title>
<path fill="none" stroke="grey" stroke-width="2" d="M73.49,-287.7C73.93,-279.98 74.46,-270.71 74.95,-262.11"/>
<polygon fill="grey" stroke="grey" stroke-width="2" points="78.45,-262.29 75.52,-252.1 71.46,-261.89 78.45,-262.29"/>
</g>
<!-- 13 -->
<g id="node14" class="node">
<title>13</title>
<path fill="none" stroke="#d8ac56" stroke-width="2" stroke-dasharray="5,2" d="M220.5,-324C220.5,-324 190.5,-324 190.5,-324 184.5,-324 178.5,-318 178.5,-312 178.5,-312 178.5,-300 178.5,-300 178.5,-294 184.5,-288 190.5,-288 190.5,-288 220.5,-288 220.5,-288 226.5,-288 232.5,-294 232.5,-300 232.5,-300 232.5,-312 232.5,-312 232.5,-318 226.5,-324 220.5,-324"/>
<text text-anchor="middle" x="205.5" y="-303.5" font-family="sans" font-size="10.00">fastp</text>
</g>
<!-- 13&#45;&gt;8 -->
<g id="edge23" class="edge">
<title>13&#45;&gt;8</title>
<path fill="none" stroke="grey" stroke-width="2" d="M205.99,-287.7C206.21,-279.98 206.48,-270.71 206.73,-262.11"/>
<polygon fill="grey" stroke="grey" stroke-width="2" points="210.22,-262.2 207.01,-252.1 203.23,-262 210.22,-262.2"/>
</g>
<!-- 14 -->
<g id="node15" class="node">
<title>14</title>
<path fill="none" stroke="#d8ac56" stroke-width="2" stroke-dasharray="5,2" d="M353.5,-324C353.5,-324 323.5,-324 323.5,-324 317.5,-324 311.5,-318 311.5,-312 311.5,-312 311.5,-300 311.5,-300 311.5,-294 317.5,-288 323.5,-288 323.5,-288 353.5,-288 353.5,-288 359.5,-288 365.5,-294 365.5,-300 365.5,-300 365.5,-312 365.5,-312 365.5,-318 359.5,-324 353.5,-324"/>
<text text-anchor="middle" x="338.5" y="-303.5" font-family="sans" font-size="10.00">fastp</text>
</g>
<!-- 14&#45;&gt;9 -->
<g id="edge24" class="edge">
<title>14&#45;&gt;9</title>
<path fill="none" stroke="grey" stroke-width="2" d="M338.5,-287.7C338.5,-279.98 338.5,-270.71 338.5,-262.11"/>
<polygon fill="grey" stroke="grey" stroke-width="2" points="342,-262.1 338.5,-252.1 335,-262.1 342,-262.1"/>
</g>
<!-- 15 -->
<g id="node16" class="node">
<title>15</title>
<path fill="none" stroke="#d8ac56" stroke-width="2" stroke-dasharray="5,2" d="M486.5,-324C486.5,-324 456.5,-324 456.5,-324 450.5,-324 444.5,-318 444.5,-312 444.5,-312 444.5,-300 444.5,-300 444.5,-294 450.5,-288 456.5,-288 456.5,-288 486.5,-288 486.5,-288 492.5,-288 498.5,-294 498.5,-300 498.5,-300 498.5,-312 498.5,-312 498.5,-318 492.5,-324 486.5,-324"/>
<text text-anchor="middle" x="471.5" y="-303.5" font-family="sans" font-size="10.00">fastp</text>
</g>
<!-- 15&#45;&gt;10 -->
<g id="edge25" class="edge">
<title>15&#45;&gt;10</title>
<path fill="none" stroke="grey" stroke-width="2" d="M471.01,-287.7C470.79,-279.98 470.52,-270.71 470.27,-262.11"/>
<polygon fill="grey" stroke="grey" stroke-width="2" points="473.77,-262 469.99,-252.1 466.78,-262.2 473.77,-262"/>
</g>
<!-- 16 -->
<g id="node17" class="node">
<title>16</title>
<path fill="none" stroke="#d8ac56" stroke-width="2" stroke-dasharray="5,2" d="M619.5,-324C619.5,-324 589.5,-324 589.5,-324 583.5,-324 577.5,-318 577.5,-312 577.5,-312 577.5,-300 577.5,-300 577.5,-294 583.5,-288 589.5,-288 589.5,-288 619.5,-288 619.5,-288 625.5,-288 631.5,-294 631.5,-300 631.5,-300 631.5,-312 631.5,-312 631.5,-318 625.5,-324 619.5,-324"/>
<text text-anchor="middle" x="604.5" y="-303.5" font-family="sans" font-size="10.00">fastp</text>
</g>
<!-- 16&#45;&gt;11 -->
<g id="edge26" class="edge">
<title>16&#45;&gt;11</title>
<path fill="none" stroke="grey" stroke-width="2" d="M603.51,-287.7C603.07,-279.98 602.54,-270.71 602.05,-262.11"/>
<polygon fill="grey" stroke="grey" stroke-width="2" points="605.54,-261.89 601.48,-252.1 598.55,-262.29 605.54,-261.89"/>
</g>
<!-- 17 -->
<g id="node18" class="node">
<title>17</title>
<path fill="none" stroke="#56d8d0" stroke-width="2" stroke-dasharray="5,2" d="M91,-396C91,-396 38,-396 38,-396 32,-396 26,-390 26,-384 26,-384 26,-372 26,-372 26,-366 32,-360 38,-360 38,-360 91,-360 91,-360 97,-360 103,-366 103,-372 103,-372 103,-384 103,-384 103,-390 97,-396 91,-396"/>
<text text-anchor="middle" x="64.5" y="-375.5" font-family="sans" font-size="10.00">bzip_to_gzip</text>
</g>
<!-- 17&#45;&gt;12 -->
<g id="edge27" class="edge">
<title>17&#45;&gt;12</title>
<path fill="none" stroke="grey" stroke-width="2" d="M66.48,-359.7C67.36,-351.98 68.42,-342.71 69.4,-334.11"/>
<polygon fill="grey" stroke="grey" stroke-width="2" points="72.89,-334.44 70.55,-324.1 65.93,-333.64 72.89,-334.44"/>
</g>
<!-- 18 -->
<g id="node19" class="node">
<title>18</title>
<path fill="none" stroke="#56d8d0" stroke-width="2" stroke-dasharray="5,2" d="M228,-396C228,-396 175,-396 175,-396 169,-396 163,-390 163,-384 163,-384 163,-372 163,-372 163,-366 169,-360 175,-360 175,-360 228,-360 228,-360 234,-360 240,-366 240,-372 240,-372 240,-384 240,-384 240,-390 234,-396 228,-396"/>
<text text-anchor="middle" x="201.5" y="-375.5" font-family="sans" font-size="10.00">bzip_to_gzip</text>
</g>
<!-- 18&#45;&gt;13 -->
<g id="edge28" class="edge">
<title>18&#45;&gt;13</title>
<path fill="none" stroke="grey" stroke-width="2" d="M202.49,-359.7C202.93,-351.98 203.46,-342.71 203.95,-334.11"/>
<polygon fill="grey" stroke="grey" stroke-width="2" points="207.45,-334.29 204.52,-324.1 200.46,-333.89 207.45,-334.29"/>
</g>
<!-- 19 -->
<g id="node20" class="node">
<title>19</title>
<path fill="none" stroke="#56d8d0" stroke-width="2" stroke-dasharray="5,2" d="M365,-396C365,-396 312,-396 312,-396 306,-396 300,-390 300,-384 300,-384 300,-372 300,-372 300,-366 306,-360 312,-360 312,-360 365,-360 365,-360 371,-360 377,-366 377,-372 377,-372 377,-384 377,-384 377,-390 371,-396 365,-396"/>
<text text-anchor="middle" x="338.5" y="-375.5" font-family="sans" font-size="10.00">bzip_to_gzip</text>
</g>
<!-- 19&#45;&gt;14 -->
<g id="edge29" class="edge">
<title>19&#45;&gt;14</title>
<path fill="none" stroke="grey" stroke-width="2" d="M338.5,-359.7C338.5,-351.98 338.5,-342.71 338.5,-334.11"/>
<polygon fill="grey" stroke="grey" stroke-width="2" points="342,-334.1 338.5,-324.1 335,-334.1 342,-334.1"/>
</g>
<!-- 20 -->
<g id="node21" class="node">
<title>20</title>
<path fill="none" stroke="#56d8d0" stroke-width="2" stroke-dasharray="5,2" d="M500,-396C500,-396 447,-396 447,-396 441,-396 435,-390 435,-384 435,-384 435,-372 435,-372 435,-366 441,-360 447,-360 447,-360 500,-360 500,-360 506,-360 512,-366 512,-372 512,-372 512,-384 512,-384 512,-390 506,-396 500,-396"/>
<text text-anchor="middle" x="473.5" y="-375.5" font-family="sans" font-size="10.00">bzip_to_gzip</text>
</g>
<!-- 20&#45;&gt;15 -->
<g id="edge30" class="edge">
<title>20&#45;&gt;15</title>
<path fill="none" stroke="grey" stroke-width="2" d="M473.01,-359.7C472.79,-351.98 472.52,-342.71 472.27,-334.11"/>
<polygon fill="grey" stroke="grey" stroke-width="2" points="475.77,-334 471.99,-324.1 468.78,-334.2 475.77,-334"/>
</g>
<!-- 21 -->
<g id="node22" class="node">
<title>21</title>
<path fill="none" stroke="#56d8d0" stroke-width="2" stroke-dasharray="5,2" d="M639,-396C639,-396 586,-396 586,-396 580,-396 574,-390 574,-384 574,-384 574,-372 574,-372 574,-366 580,-360 586,-360 586,-360 639,-360 639,-360 645,-360 651,-366 651,-372 651,-372 651,-384 651,-384 651,-390 645,-396 639,-396"/>
<text text-anchor="middle" x="612.5" y="-375.5" font-family="sans" font-size="10.00">bzip_to_gzip</text>
</g>
<!-- 21&#45;&gt;16 -->
<g id="edge31" class="edge">
<title>21&#45;&gt;16</title>
<path fill="none" stroke="grey" stroke-width="2" d="M610.52,-359.7C609.64,-351.98 608.58,-342.71 607.6,-334.11"/>
<polygon fill="grey" stroke="grey" stroke-width="2" points="611.07,-333.64 606.45,-324.1 604.11,-334.44 611.07,-333.64"/>
</g>
<!-- 22 -->
<g id="node23" class="node">
<title>22</title>
<path fill="none" stroke="#97d856" stroke-width="2" stroke-dasharray="5,2" d="M109,-468C109,-468 12,-468 12,-468 6,-468 0,-462 0,-456 0,-456 0,-444 0,-444 0,-438 6,-432 12,-432 12,-432 109,-432 109,-432 115,-432 121,-438 121,-444 121,-444 121,-456 121,-456 121,-462 115,-468 109,-468"/>
<text text-anchor="middle" x="60.5" y="-447.5" font-family="sans" font-size="10.00">uncompress_genome</text>
</g>
<!-- 22&#45;&gt;17 -->
<g id="edge32" class="edge">
<title>22&#45;&gt;17</title>
<path fill="none" stroke="grey" stroke-width="2" d="M61.49,-431.7C61.93,-423.98 62.46,-414.71 62.95,-406.11"/>
<polygon fill="grey" stroke="grey" stroke-width="2" points="66.45,-406.29 63.52,-396.1 59.46,-405.89 66.45,-406.29"/>
</g>
<!-- 23 -->
<g id="node24" class="node">
<title>23</title>
<path fill="none" stroke="#97d856" stroke-width="2" stroke-dasharray="5,2" d="M248,-468C248,-468 151,-468 151,-468 145,-468 139,-462 139,-456 139,-456 139,-444 139,-444 139,-438 145,-432 151,-432 151,-432 248,-432 248,-432 254,-432 260,-438 260,-444 260,-444 260,-456 260,-456 260,-462 254,-468 248,-468"/>
<text text-anchor="middle" x="199.5" y="-447.5" font-family="sans" font-size="10.00">uncompress_genome</text>
</g>
<!-- 23&#45;&gt;18 -->
<g id="edge33" class="edge">
<title>23&#45;&gt;18</title>
<path fill="none" stroke="grey" stroke-width="2" d="M199.99,-431.7C200.21,-423.98 200.48,-414.71 200.73,-406.11"/>
<polygon fill="grey" stroke="grey" stroke-width="2" points="204.22,-406.2 201.01,-396.1 197.23,-406 204.22,-406.2"/>
</g>
<!-- 24 -->
<g id="node25" class="node">
<title>24</title>
<path fill="none" stroke="#97d856" stroke-width="2" stroke-dasharray="5,2" d="M387,-468C387,-468 290,-468 290,-468 284,-468 278,-462 278,-456 278,-456 278,-444 278,-444 278,-438 284,-432 290,-432 290,-432 387,-432 387,-432 393,-432 399,-438 399,-444 399,-444 399,-456 399,-456 399,-462 393,-468 387,-468"/>
<text text-anchor="middle" x="338.5" y="-447.5" font-family="sans" font-size="10.00">uncompress_genome</text>
</g>
<!-- 24&#45;&gt;19 -->
<g id="edge34" class="edge">
<title>24&#45;&gt;19</title>
<path fill="none" stroke="grey" stroke-width="2" d="M338.5,-431.7C338.5,-423.98 338.5,-414.71 338.5,-406.11"/>
<polygon fill="grey" stroke="grey" stroke-width="2" points="342,-406.1 338.5,-396.1 335,-406.1 342,-406.1"/>
</g>
<!-- 25 -->
<g id="node26" class="node">
<title>25</title>
<path fill="none" stroke="#97d856" stroke-width="2" stroke-dasharray="5,2" d="M526,-468C526,-468 429,-468 429,-468 423,-468 417,-462 417,-456 417,-456 417,-444 417,-444 417,-438 423,-432 429,-432 429,-432 526,-432 526,-432 532,-432 538,-438 538,-444 538,-444 538,-456 538,-456 538,-462 532,-468 526,-468"/>
<text text-anchor="middle" x="477.5" y="-447.5" font-family="sans" font-size="10.00">uncompress_genome</text>
</g>
<!-- 25&#45;&gt;20 -->
<g id="edge35" class="edge">
<title>25&#45;&gt;20</title>
<path fill="none" stroke="grey" stroke-width="2" d="M476.51,-431.7C476.07,-423.98 475.54,-414.71 475.05,-406.11"/>
<polygon fill="grey" stroke="grey" stroke-width="2" points="478.54,-405.89 474.48,-396.1 471.55,-406.29 478.54,-405.89"/>
</g>
<!-- 26 -->
<g id="node27" class="node">
<title>26</title>
<path fill="none" stroke="#97d856" stroke-width="2" stroke-dasharray="5,2" d="M665,-468C665,-468 568,-468 568,-468 562,-468 556,-462 556,-456 556,-456 556,-444 556,-444 556,-438 562,-432 568,-432 568,-432 665,-432 665,-432 671,-432 677,-438 677,-444 677,-444 677,-456 677,-456 677,-462 671,-468 665,-468"/>
<text text-anchor="middle" x="616.5" y="-447.5" font-family="sans" font-size="10.00">uncompress_genome</text>
</g>
<!-- 26&#45;&gt;21 -->
<g id="edge36" class="edge">
<title>26&#45;&gt;21</title>
<path fill="none" stroke="grey" stroke-width="2" d="M615.51,-431.7C615.07,-423.98 614.54,-414.71 614.05,-406.11"/>
<polygon fill="grey" stroke="grey" stroke-width="2" points="617.54,-405.89 613.48,-396.1 610.55,-406.29 617.54,-405.89"/>
</g>
<!-- 27 -->
<g id="node28" class="node">
<title>27</title>
<path fill="none" stroke="#56d8b9" stroke-width="2" stroke-dasharray="5,2" d="M102,-540C102,-540 19,-540 19,-540 13,-540 7,-534 7,-528 7,-528 7,-516 7,-516 7,-510 13,-504 19,-504 19,-504 102,-504 102,-504 108,-504 114,-510 114,-516 114,-516 114,-528 114,-528 114,-534 108,-540 102,-540"/>
<text text-anchor="middle" x="60.5" y="-525" font-family="sans" font-size="10.00">download_data</text>
<text text-anchor="middle" x="60.5" y="-514" font-family="sans" font-size="10.00">sample: SM&#45;76C9Y</text>
</g>
<!-- 27&#45;&gt;22 -->
<g id="edge37" class="edge">
<title>27&#45;&gt;22</title>
<path fill="none" stroke="grey" stroke-width="2" d="M60.5,-503.7C60.5,-495.98 60.5,-486.71 60.5,-478.11"/>
<polygon fill="grey" stroke="grey" stroke-width="2" points="64,-478.1 60.5,-468.1 57,-478.1 64,-478.1"/>
</g>
<!-- 28 -->
<g id="node29" class="node">
<title>28</title>
<path fill="none" stroke="#56d8b9" stroke-width="2" stroke-dasharray="5,2" d="M241,-540C241,-540 158,-540 158,-540 152,-540 146,-534 146,-528 146,-528 146,-516 146,-516 146,-510 152,-504 158,-504 158,-504 241,-504 241,-504 247,-504 253,-510 253,-516 253,-516 253,-528 253,-528 253,-534 247,-540 241,-540"/>
<text text-anchor="middle" x="199.5" y="-525" font-family="sans" font-size="10.00">download_data</text>
<text text-anchor="middle" x="199.5" y="-514" font-family="sans" font-size="10.00">sample: SM&#45;7CP39</text>
</g>
<!-- 28&#45;&gt;23 -->
<g id="edge38" class="edge">
<title>28&#45;&gt;23</title>
<path fill="none" stroke="grey" stroke-width="2" d="M199.5,-503.7C199.5,-495.98 199.5,-486.71 199.5,-478.11"/>
<polygon fill="grey" stroke="grey" stroke-width="2" points="203,-478.1 199.5,-468.1 196,-478.1 203,-478.1"/>
</g>
<!-- 29 -->
<g id="node30" class="node">
<title>29</title>
<path fill="none" stroke="#56d8b9" stroke-width="2" stroke-dasharray="5,2" d="M381.5,-540C381.5,-540 295.5,-540 295.5,-540 289.5,-540 283.5,-534 283.5,-528 283.5,-528 283.5,-516 283.5,-516 283.5,-510 289.5,-504 295.5,-504 295.5,-504 381.5,-504 381.5,-504 387.5,-504 393.5,-510 393.5,-516 393.5,-516 393.5,-528 393.5,-528 393.5,-534 387.5,-540 381.5,-540"/>
<text text-anchor="middle" x="338.5" y="-525" font-family="sans" font-size="10.00">download_data</text>
<text text-anchor="middle" x="338.5" y="-514" font-family="sans" font-size="10.00">sample: SM&#45;7M8RR</text>
</g>
<!-- 29&#45;&gt;24 -->
<g id="edge39" class="edge">
<title>29&#45;&gt;24</title>
<path fill="none" stroke="grey" stroke-width="2" d="M338.5,-503.7C338.5,-495.98 338.5,-486.71 338.5,-478.11"/>
<polygon fill="grey" stroke="grey" stroke-width="2" points="342,-478.1 338.5,-468.1 335,-478.1 342,-478.1"/>
</g>
<!-- 30 -->
<g id="node31" class="node">
<title>30</title>
<path fill="none" stroke="#56d8b9" stroke-width="2" stroke-dasharray="5,2" d="M521.5,-540C521.5,-540 433.5,-540 433.5,-540 427.5,-540 421.5,-534 421.5,-528 421.5,-528 421.5,-516 421.5,-516 421.5,-510 427.5,-504 433.5,-504 433.5,-504 521.5,-504 521.5,-504 527.5,-504 533.5,-510 533.5,-516 533.5,-516 533.5,-528 533.5,-528 533.5,-534 527.5,-540 521.5,-540"/>
<text text-anchor="middle" x="477.5" y="-525" font-family="sans" font-size="10.00">download_data</text>
<text text-anchor="middle" x="477.5" y="-514" font-family="sans" font-size="10.00">sample: SM&#45;9QMNE</text>
</g>
<!-- 30&#45;&gt;25 -->
<g id="edge40" class="edge">
<title>30&#45;&gt;25</title>
<path fill="none" stroke="grey" stroke-width="2" d="M477.5,-503.7C477.5,-495.98 477.5,-486.71 477.5,-478.11"/>
<polygon fill="grey" stroke="grey" stroke-width="2" points="481,-478.1 477.5,-468.1 474,-478.1 481,-478.1"/>
</g>
<!-- 31 -->
<g id="node32" class="node">
<title>31</title>
<path fill="none" stroke="#56d8b9" stroke-width="2" stroke-dasharray="5,2" d="M655,-540C655,-540 578,-540 578,-540 572,-540 566,-534 566,-528 566,-528 566,-516 566,-516 566,-510 572,-504 578,-504 578,-504 655,-504 655,-504 661,-504 667,-510 667,-516 667,-516 667,-528 667,-528 667,-534 661,-540 655,-540"/>
<text text-anchor="middle" x="616.5" y="-525" font-family="sans" font-size="10.00">download_data</text>
<text text-anchor="middle" x="616.5" y="-514" font-family="sans" font-size="10.00">sample: SM&#45;9SIJC</text>
</g>
<!-- 31&#45;&gt;26 -->
<g id="edge41" class="edge">
<title>31&#45;&gt;26</title>
<path fill="none" stroke="grey" stroke-width="2" d="M616.5,-503.7C616.5,-495.98 616.5,-486.71 616.5,-478.11"/>
<polygon fill="grey" stroke="grey" stroke-width="2" points="620,-478.1 616.5,-468.1 613,-478.1 620,-478.1"/>
</g>
</g>
</svg>
