<?xml version="1.0" encoding="UTF-8" standalone="no"?>
<!DOCTYPE svg PUBLIC "-//W3C//DTD SVG 1.1//EN"
 "http://www.w3.org/Graphics/SVG/1.1/DTD/svg11.dtd">
<!-- Generated by graphviz version 2.42.3 (20191010.1750)
 -->
<!-- Title: snakemake_dag Pages: 1 -->
<svg width="835pt" height="548pt"
 viewBox="0.00 0.00 835.00 548.00" xmlns="http://www.w3.org/2000/svg" xmlns:xlink="http://www.w3.org/1999/xlink">
<g id="graph0" class="graph" transform="scale(1 1) rotate(0) translate(4 544)">
<title>snakemake_dag</title>
<polygon fill="white" stroke="transparent" points="-4,4 -4,-544 831,-544 831,4 -4,4"/>
<!-- 0 -->
<g id="node1" class="node">
<title>0</title>
<path fill="none" stroke="#56d882" stroke-width="2" d="M421.5,-36C421.5,-36 391.5,-36 391.5,-36 385.5,-36 379.5,-30 379.5,-24 379.5,-24 379.5,-12 379.5,-12 379.5,-6 385.5,0 391.5,0 391.5,0 421.5,0 421.5,0 427.5,0 433.5,-6 433.5,-12 433.5,-12 433.5,-24 433.5,-24 433.5,-30 427.5,-36 421.5,-36"/>
<text text-anchor="middle" x="406.5" y="-15.5" font-family="sans" font-size="10.00">all</text>
</g>
<!-- 1 -->
<g id="node2" class="node">
<title>1</title>
<path fill="none" stroke="#5682d8" stroke-width="2" d="M207,-108C207,-108 130,-108 130,-108 124,-108 118,-102 118,-96 118,-96 118,-84 118,-84 118,-78 124,-72 130,-72 130,-72 207,-72 207,-72 213,-72 219,-78 219,-84 219,-84 219,-96 219,-96 219,-102 213,-108 207,-108"/>
<text text-anchor="middle" x="168.5" y="-87.5" font-family="sans" font-size="10.00">sourmash_gather</text>
</g>
<!-- 1&#45;&gt;0 -->
<g id="edge1" class="edge">
<title>1&#45;&gt;0</title>
<path fill="none" stroke="grey" stroke-width="2" d="M219.27,-74.07C264.45,-60.78 329.45,-41.66 369.77,-29.8"/>
<polygon fill="grey" stroke="grey" stroke-width="2" points="370.86,-33.13 379.46,-26.95 368.88,-26.42 370.86,-33.13"/>
</g>
<!-- 2 -->
<g id="node3" class="node">
<title>2</title>
<path fill="none" stroke="#5682d8" stroke-width="2" d="M326,-108C326,-108 249,-108 249,-108 243,-108 237,-102 237,-96 237,-96 237,-84 237,-84 237,-78 243,-72 249,-72 249,-72 326,-72 326,-72 332,-72 338,-78 338,-84 338,-84 338,-96 338,-96 338,-102 332,-108 326,-108"/>
<text text-anchor="middle" x="287.5" y="-87.5" font-family="sans" font-size="10.00">sourmash_gather</text>
</g>
<!-- 2&#45;&gt;0 -->
<g id="edge2" class="edge">
<title>2&#45;&gt;0</title>
<path fill="none" stroke="grey" stroke-width="2" d="M316.61,-71.88C332.9,-62.29 353.34,-50.27 370.62,-40.11"/>
<polygon fill="grey" stroke="grey" stroke-width="2" points="372.48,-43.07 379.32,-34.99 368.93,-37.04 372.48,-43.07"/>
</g>
<!-- 3 -->
<g id="node4" class="node">
<title>3</title>
<path fill="none" stroke="#5682d8" stroke-width="2" d="M445,-108C445,-108 368,-108 368,-108 362,-108 356,-102 356,-96 356,-96 356,-84 356,-84 356,-78 362,-72 368,-72 368,-72 445,-72 445,-72 451,-72 457,-78 457,-84 457,-84 457,-96 457,-96 457,-102 451,-108 445,-108"/>
<text text-anchor="middle" x="406.5" y="-87.5" font-family="sans" font-size="10.00">sourmash_gather</text>
</g>
<!-- 3&#45;&gt;0 -->
<g id="edge3" class="edge">
<title>3&#45;&gt;0</title>
<path fill="none" stroke="grey" stroke-width="2" d="M406.5,-71.7C406.5,-63.98 406.5,-54.71 406.5,-46.11"/>
<polygon fill="grey" stroke="grey" stroke-width="2" points="410,-46.1 406.5,-36.1 403,-46.1 410,-46.1"/>
</g>
<!-- 4 -->
<g id="node5" class="node">
<title>4</title>
<path fill="none" stroke="#5682d8" stroke-width="2" d="M564,-108C564,-108 487,-108 487,-108 481,-108 475,-102 475,-96 475,-96 475,-84 475,-84 475,-78 481,-72 487,-72 487,-72 564,-72 564,-72 570,-72 576,-78 576,-84 576,-84 576,-96 576,-96 576,-102 570,-108 564,-108"/>
<text text-anchor="middle" x="525.5" y="-87.5" font-family="sans" font-size="10.00">sourmash_gather</text>
</g>
<!-- 4&#45;&gt;0 -->
<g id="edge4" class="edge">
<title>4&#45;&gt;0</title>
<path fill="none" stroke="grey" stroke-width="2" d="M496.39,-71.88C480.1,-62.29 459.66,-50.27 442.38,-40.11"/>
<polygon fill="grey" stroke="grey" stroke-width="2" points="444.07,-37.04 433.68,-34.99 440.52,-43.07 444.07,-37.04"/>
</g>
<!-- 5 -->
<g id="node6" class="node">
<title>5</title>
<path fill="none" stroke="#5682d8" stroke-width="2" d="M683,-108C683,-108 606,-108 606,-108 600,-108 594,-102 594,-96 594,-96 594,-84 594,-84 594,-78 600,-72 606,-72 606,-72 683,-72 683,-72 689,-72 695,-78 695,-84 695,-84 695,-96 695,-96 695,-102 689,-108 683,-108"/>
<text text-anchor="middle" x="644.5" y="-87.5" font-family="sans" font-size="10.00">sourmash_gather</text>
</g>
<!-- 5&#45;&gt;0 -->
<g id="edge5" class="edge">
<title>5&#45;&gt;0</title>
<path fill="none" stroke="grey" stroke-width="2" d="M593.73,-74.07C548.55,-60.78 483.55,-41.66 443.23,-29.8"/>
<polygon fill="grey" stroke="grey" stroke-width="2" points="444.12,-26.42 433.54,-26.95 442.14,-33.13 444.12,-26.42"/>
</g>
<!-- 6 -->
<g id="node7" class="node">
<title>6</title>
<path fill="none" stroke="#d85656" stroke-width="2" d="M112,-180C112,-180 23,-180 23,-180 17,-180 11,-174 11,-168 11,-168 11,-156 11,-156 11,-150 17,-144 23,-144 23,-144 112,-144 112,-144 118,-144 124,-150 124,-156 124,-156 124,-168 124,-168 124,-174 118,-180 112,-180"/>
<text text-anchor="middle" x="67.5" y="-159.5" font-family="sans" font-size="10.00">sourmash_compute</text>
</g>
<!-- 6&#45;&gt;1 -->
<g id="edge6" class="edge">
<title>6&#45;&gt;1</title>
<path fill="none" stroke="grey" stroke-width="2" d="M92.21,-143.88C105.17,-134.89 121.23,-123.76 135.27,-114.03"/>
<polygon fill="grey" stroke="grey" stroke-width="2" points="137.47,-116.76 143.7,-108.19 133.48,-111.01 137.47,-116.76"/>
</g>
<!-- 7 -->
<g id="node8" class="node">
<title>7</title>
<path fill="none" stroke="#56d8d8" stroke-width="2" d="M409.5,-180C409.5,-180 285.5,-180 285.5,-180 279.5,-180 273.5,-174 273.5,-168 273.5,-168 273.5,-156 273.5,-156 273.5,-150 279.5,-144 285.5,-144 285.5,-144 409.5,-144 409.5,-144 415.5,-144 421.5,-150 421.5,-156 421.5,-156 421.5,-168 421.5,-168 421.5,-174 415.5,-180 409.5,-180"/>
<text text-anchor="middle" x="347.5" y="-159.5" font-family="sans" font-size="10.00">download_gather_genbank</text>
</g>
<!-- 7&#45;&gt;1 -->
<g id="edge7" class="edge">
<title>7&#45;&gt;1</title>
<path fill="none" stroke="grey" stroke-width="2" d="M303.71,-143.88C278.92,-134.18 247.72,-121.98 221.54,-111.74"/>
<polygon fill="grey" stroke="grey" stroke-width="2" points="222.73,-108.45 212.15,-108.07 220.18,-114.97 222.73,-108.45"/>
</g>
<!-- 7&#45;&gt;2 -->
<g id="edge9" class="edge">
<title>7&#45;&gt;2</title>
<path fill="none" stroke="grey" stroke-width="2" d="M332.67,-143.7C325.48,-135.3 316.7,-125.07 308.81,-115.86"/>
<polygon fill="grey" stroke="grey" stroke-width="2" points="311.33,-113.42 302.16,-108.1 306.01,-117.97 311.33,-113.42"/>
</g>
<!-- 7&#45;&gt;3 -->
<g id="edge10" class="edge">
<title>7&#45;&gt;3</title>
<path fill="none" stroke="grey" stroke-width="2" d="M362.08,-143.7C369.16,-135.3 377.78,-125.07 385.55,-115.86"/>
<polygon fill="grey" stroke="grey" stroke-width="2" points="388.31,-118.01 392.08,-108.1 382.96,-113.49 388.31,-118.01"/>
</g>
<!-- 7&#45;&gt;4 -->
<g id="edge13" class="edge">
<title>7&#45;&gt;4</title>
<path fill="none" stroke="grey" stroke-width="2" d="M391.04,-143.88C415.7,-134.18 446.72,-121.98 472.75,-111.74"/>
<polygon fill="grey" stroke="grey" stroke-width="2" points="474.07,-114.99 482.1,-108.07 471.51,-108.47 474.07,-114.99"/>
</g>
<!-- 7&#45;&gt;5 -->
<g id="edge15" class="edge">
<title>7&#45;&gt;5</title>
<path fill="none" stroke="grey" stroke-width="2" d="M421.68,-145.53C466.06,-136.01 523.78,-123.18 583.77,-108.11"/>
<polygon fill="grey" stroke="grey" stroke-width="2" points="584.98,-111.42 593.81,-105.58 583.26,-104.63 584.98,-111.42"/>
</g>
<!-- 8 -->
<g id="node9" class="node">
<title>8</title>
<path fill="none" stroke="#d85656" stroke-width="2" d="M243,-180C243,-180 154,-180 154,-180 148,-180 142,-174 142,-168 142,-168 142,-156 142,-156 142,-150 148,-144 154,-144 154,-144 243,-144 243,-144 249,-144 255,-150 255,-156 255,-156 255,-168 255,-168 255,-174 249,-180 243,-180"/>
<text text-anchor="middle" x="198.5" y="-159.5" font-family="sans" font-size="10.00">sourmash_compute</text>
</g>
<!-- 8&#45;&gt;2 -->
<g id="edge8" class="edge">
<title>8&#45;&gt;2</title>
<path fill="none" stroke="grey" stroke-width="2" d="M220.5,-143.7C231.71,-134.88 245.5,-124.03 257.65,-114.47"/>
<polygon fill="grey" stroke="grey" stroke-width="2" points="260.06,-117.04 265.75,-108.1 255.73,-111.54 260.06,-117.04"/>
</g>
<!-- 9 -->
<g id="node10" class="node">
<title>9</title>
<path fill="none" stroke="#d85656" stroke-width="2" d="M541,-180C541,-180 452,-180 452,-180 446,-180 440,-174 440,-168 440,-168 440,-156 440,-156 440,-150 446,-144 452,-144 452,-144 541,-144 541,-144 547,-144 553,-150 553,-156 553,-156 553,-168 553,-168 553,-174 547,-180 541,-180"/>
<text text-anchor="middle" x="496.5" y="-159.5" font-family="sans" font-size="10.00">sourmash_compute</text>
</g>
<!-- 9&#45;&gt;3 -->
<g id="edge11" class="edge">
<title>9&#45;&gt;3</title>
<path fill="none" stroke="grey" stroke-width="2" d="M474.25,-143.7C462.92,-134.88 448.97,-124.03 436.68,-114.47"/>
<polygon fill="grey" stroke="grey" stroke-width="2" points="438.53,-111.48 428.49,-108.1 434.24,-117.01 438.53,-111.48"/>
</g>
<!-- 10 -->
<g id="node11" class="node">
<title>10</title>
<path fill="none" stroke="#d85656" stroke-width="2" d="M672,-180C672,-180 583,-180 583,-180 577,-180 571,-174 571,-168 571,-168 571,-156 571,-156 571,-150 577,-144 583,-144 583,-144 672,-144 672,-144 678,-144 684,-150 684,-156 684,-156 684,-168 684,-168 684,-174 678,-180 672,-180"/>
<text text-anchor="middle" x="627.5" y="-159.5" font-family="sans" font-size="10.00">sourmash_compute</text>
</g>
<!-- 10&#45;&gt;4 -->
<g id="edge12" class="edge">
<title>10&#45;&gt;4</title>
<path fill="none" stroke="grey" stroke-width="2" d="M602.55,-143.88C589.46,-134.89 573.24,-123.76 559.06,-114.03"/>
<polygon fill="grey" stroke="grey" stroke-width="2" points="560.77,-110.96 550.55,-108.19 556.81,-116.73 560.77,-110.96"/>
</g>
<!-- 11 -->
<g id="node12" class="node">
<title>11</title>
<path fill="none" stroke="#d85656" stroke-width="2" d="M805,-180C805,-180 716,-180 716,-180 710,-180 704,-174 704,-168 704,-168 704,-156 704,-156 704,-150 710,-144 716,-144 716,-144 805,-144 805,-144 811,-144 817,-150 817,-156 817,-156 817,-168 817,-168 817,-174 811,-180 805,-180"/>
<text text-anchor="middle" x="760.5" y="-159.5" font-family="sans" font-size="10.00">sourmash_compute</text>
</g>
<!-- 11&#45;&gt;5 -->
<g id="edge14" class="edge">
<title>11&#45;&gt;5</title>
<path fill="none" stroke="grey" stroke-width="2" d="M732.12,-143.88C716.96,-134.72 698.09,-123.34 681.76,-113.48"/>
<polygon fill="grey" stroke="grey" stroke-width="2" points="683.36,-110.36 672.99,-108.19 679.74,-116.35 683.36,-110.36"/>
</g>
<!-- 12 -->
<g id="node13" class="node">
<title>12</title>
<path fill="none" stroke="#56d8a9" stroke-width="2" d="M78.5,-252C78.5,-252 48.5,-252 48.5,-252 42.5,-252 36.5,-246 36.5,-240 36.5,-240 36.5,-228 36.5,-228 36.5,-222 42.5,-216 48.5,-216 48.5,-216 78.5,-216 78.5,-216 84.5,-216 90.5,-222 90.5,-228 90.5,-228 90.5,-240 90.5,-240 90.5,-246 84.5,-252 78.5,-252"/>
<text text-anchor="middle" x="63.5" y="-231.5" font-family="sans" font-size="10.00">khmer</text>
</g>
<!-- 12&#45;&gt;6 -->
<g id="edge16" class="edge">
<title>12&#45;&gt;6</title>
<path fill="none" stroke="grey" stroke-width="2" d="M64.49,-215.7C64.93,-207.98 65.46,-198.71 65.95,-190.11"/>
<polygon fill="grey" stroke="grey" stroke-width="2" points="69.45,-190.29 66.52,-180.1 62.46,-189.89 69.45,-190.29"/>
</g>
<!-- 13 -->
<g id="node14" class="node">
<title>13</title>
<path fill="none" stroke="#56d8a9" stroke-width="2" d="M213.5,-252C213.5,-252 183.5,-252 183.5,-252 177.5,-252 171.5,-246 171.5,-240 171.5,-240 171.5,-228 171.5,-228 171.5,-222 177.5,-216 183.5,-216 183.5,-216 213.5,-216 213.5,-216 219.5,-216 225.5,-222 225.5,-228 225.5,-228 225.5,-240 225.5,-240 225.5,-246 219.5,-252 213.5,-252"/>
<text text-anchor="middle" x="198.5" y="-231.5" font-family="sans" font-size="10.00">khmer</text>
</g>
<!-- 13&#45;&gt;8 -->
<g id="edge17" class="edge">
<title>13&#45;&gt;8</title>
<path fill="none" stroke="grey" stroke-width="2" d="M198.5,-215.7C198.5,-207.98 198.5,-198.71 198.5,-190.11"/>
<polygon fill="grey" stroke="grey" stroke-width="2" points="202,-190.1 198.5,-180.1 195,-190.1 202,-190.1"/>
</g>
<!-- 14 -->
<g id="node15" class="node">
<title>14</title>
<path fill="none" stroke="#56d8a9" stroke-width="2" d="M507.5,-252C507.5,-252 477.5,-252 477.5,-252 471.5,-252 465.5,-246 465.5,-240 465.5,-240 465.5,-228 465.5,-228 465.5,-222 471.5,-216 477.5,-216 477.5,-216 507.5,-216 507.5,-216 513.5,-216 519.5,-222 519.5,-228 519.5,-228 519.5,-240 519.5,-240 519.5,-246 513.5,-252 507.5,-252"/>
<text text-anchor="middle" x="492.5" y="-231.5" font-family="sans" font-size="10.00">khmer</text>
</g>
<!-- 14&#45;&gt;9 -->
<g id="edge18" class="edge">
<title>14&#45;&gt;9</title>
<path fill="none" stroke="grey" stroke-width="2" d="M493.49,-215.7C493.93,-207.98 494.46,-198.71 494.95,-190.11"/>
<polygon fill="grey" stroke="grey" stroke-width="2" points="498.45,-190.29 495.52,-180.1 491.46,-189.89 498.45,-190.29"/>
</g>
<!-- 15 -->
<g id="node16" class="node">
<title>15</title>
<path fill="none" stroke="#56d8a9" stroke-width="2" d="M642.5,-252C642.5,-252 612.5,-252 612.5,-252 606.5,-252 600.5,-246 600.5,-240 600.5,-240 600.5,-228 600.5,-228 600.5,-222 606.5,-216 612.5,-216 612.5,-216 642.5,-216 642.5,-216 648.5,-216 654.5,-222 654.5,-228 654.5,-228 654.5,-240 654.5,-240 654.5,-246 648.5,-252 642.5,-252"/>
<text text-anchor="middle" x="627.5" y="-231.5" font-family="sans" font-size="10.00">khmer</text>
</g>
<!-- 15&#45;&gt;10 -->
<g id="edge19" class="edge">
<title>15&#45;&gt;10</title>
<path fill="none" stroke="grey" stroke-width="2" d="M627.5,-215.7C627.5,-207.98 627.5,-198.71 627.5,-190.11"/>
<polygon fill="grey" stroke="grey" stroke-width="2" points="631,-190.1 627.5,-180.1 624,-190.1 631,-190.1"/>
</g>
<!-- 16 -->
<g id="node17" class="node">
<title>16</title>
<path fill="none" stroke="#56d8a9" stroke-width="2" d="M776.5,-252C776.5,-252 746.5,-252 746.5,-252 740.5,-252 734.5,-246 734.5,-240 734.5,-240 734.5,-228 734.5,-228 734.5,-222 740.5,-216 746.5,-216 746.5,-216 776.5,-216 776.5,-216 782.5,-216 788.5,-222 788.5,-228 788.5,-228 788.5,-240 788.5,-240 788.5,-246 782.5,-252 776.5,-252"/>
<text text-anchor="middle" x="761.5" y="-231.5" font-family="sans" font-size="10.00">khmer</text>
</g>
<!-- 16&#45;&gt;11 -->
<g id="edge20" class="edge">
<title>16&#45;&gt;11</title>
<path fill="none" stroke="grey" stroke-width="2" d="M761.25,-215.7C761.14,-207.98 761.01,-198.71 760.89,-190.11"/>
<polygon fill="grey" stroke="grey" stroke-width="2" points="764.39,-190.05 760.74,-180.1 757.39,-190.15 764.39,-190.05"/>
</g>
<!-- 17 -->
<g id="node18" class="node">
<title>17</title>
<path fill="none" stroke="#80d856" stroke-width="2" stroke-dasharray="5,2" d="M76.5,-324C76.5,-324 46.5,-324 46.5,-324 40.5,-324 34.5,-318 34.5,-312 34.5,-312 34.5,-300 34.5,-300 34.5,-294 40.5,-288 46.5,-288 46.5,-288 76.5,-288 76.5,-288 82.5,-288 88.5,-294 88.5,-300 88.5,-300 88.5,-312 88.5,-312 88.5,-318 82.5,-324 76.5,-324"/>
<text text-anchor="middle" x="61.5" y="-303.5" font-family="sans" font-size="10.00">fastp</text>
</g>
<!-- 17&#45;&gt;12 -->
<g id="edge21" class="edge">
<title>17&#45;&gt;12</title>
<path fill="none" stroke="grey" stroke-width="2" d="M61.99,-287.7C62.21,-279.98 62.48,-270.71 62.73,-262.11"/>
<polygon fill="grey" stroke="grey" stroke-width="2" points="66.22,-262.2 63.01,-252.1 59.23,-262 66.22,-262.2"/>
</g>
<!-- 18 -->
<g id="node19" class="node">
<title>18</title>
<path fill="none" stroke="#80d856" stroke-width="2" stroke-dasharray="5,2" d="M213.5,-324C213.5,-324 183.5,-324 183.5,-324 177.5,-324 171.5,-318 171.5,-312 171.5,-312 171.5,-300 171.5,-300 171.5,-294 177.5,-288 183.5,-288 183.5,-288 213.5,-288 213.5,-288 219.5,-288 225.5,-294 225.5,-300 225.5,-300 225.5,-312 225.5,-312 225.5,-318 219.5,-324 213.5,-324"/>
<text text-anchor="middle" x="198.5" y="-303.5" font-family="sans" font-size="10.00">fastp</text>
</g>
<!-- 18&#45;&gt;13 -->
<g id="edge22" class="edge">
<title>18&#45;&gt;13</title>
<path fill="none" stroke="grey" stroke-width="2" d="M198.5,-287.7C198.5,-279.98 198.5,-270.71 198.5,-262.11"/>
<polygon fill="grey" stroke="grey" stroke-width="2" points="202,-262.1 198.5,-252.1 195,-262.1 202,-262.1"/>
</g>
<!-- 19 -->
<g id="node20" class="node">
<title>19</title>
<path fill="none" stroke="#80d856" stroke-width="2" stroke-dasharray="5,2" d="M506.5,-324C506.5,-324 476.5,-324 476.5,-324 470.5,-324 464.5,-318 464.5,-312 464.5,-312 464.5,-300 464.5,-300 464.5,-294 470.5,-288 476.5,-288 476.5,-288 506.5,-288 506.5,-288 512.5,-288 518.5,-294 518.5,-300 518.5,-300 518.5,-312 518.5,-312 518.5,-318 512.5,-324 506.5,-324"/>
<text text-anchor="middle" x="491.5" y="-303.5" font-family="sans" font-size="10.00">fastp</text>
</g>
<!-- 19&#45;&gt;14 -->
<g id="edge23" class="edge">
<title>19&#45;&gt;14</title>
<path fill="none" stroke="grey" stroke-width="2" d="M491.75,-287.7C491.86,-279.98 491.99,-270.71 492.11,-262.11"/>
<polygon fill="grey" stroke="grey" stroke-width="2" points="495.61,-262.15 492.26,-252.1 488.61,-262.05 495.61,-262.15"/>
</g>
<!-- 20 -->
<g id="node21" class="node">
<title>20</title>
<path fill="none" stroke="#80d856" stroke-width="2" stroke-dasharray="5,2" d="M642.5,-324C642.5,-324 612.5,-324 612.5,-324 606.5,-324 600.5,-318 600.5,-312 600.5,-312 600.5,-300 600.5,-300 600.5,-294 606.5,-288 612.5,-288 612.5,-288 642.5,-288 642.5,-288 648.5,-288 654.5,-294 654.5,-300 654.5,-300 654.5,-312 654.5,-312 654.5,-318 648.5,-324 642.5,-324"/>
<text text-anchor="middle" x="627.5" y="-303.5" font-family="sans" font-size="10.00">fastp</text>
</g>
<!-- 20&#45;&gt;15 -->
<g id="edge24" class="edge">
<title>20&#45;&gt;15</title>
<path fill="none" stroke="grey" stroke-width="2" d="M627.5,-287.7C627.5,-279.98 627.5,-270.71 627.5,-262.11"/>
<polygon fill="grey" stroke="grey" stroke-width="2" points="631,-262.1 627.5,-252.1 624,-262.1 631,-262.1"/>
</g>
<!-- 21 -->
<g id="node22" class="node">
<title>21</title>
<path fill="none" stroke="#80d856" stroke-width="2" stroke-dasharray="5,2" d="M776.5,-324C776.5,-324 746.5,-324 746.5,-324 740.5,-324 734.5,-318 734.5,-312 734.5,-312 734.5,-300 734.5,-300 734.5,-294 740.5,-288 746.5,-288 746.5,-288 776.5,-288 776.5,-288 782.5,-288 788.5,-294 788.5,-300 788.5,-300 788.5,-312 788.5,-312 788.5,-318 782.5,-324 776.5,-324"/>
<text text-anchor="middle" x="761.5" y="-303.5" font-family="sans" font-size="10.00">fastp</text>
</g>
<!-- 21&#45;&gt;16 -->
<g id="edge25" class="edge">
<title>21&#45;&gt;16</title>
<path fill="none" stroke="grey" stroke-width="2" d="M761.5,-287.7C761.5,-279.98 761.5,-270.71 761.5,-262.11"/>
<polygon fill="grey" stroke="grey" stroke-width="2" points="765,-262.1 761.5,-252.1 758,-262.1 765,-262.1"/>
</g>
<!-- 22 -->
<g id="node23" class="node">
<title>22</title>
<path fill="none" stroke="#d6d856" stroke-width="2" stroke-dasharray="5,2" d="M87,-396C87,-396 34,-396 34,-396 28,-396 22,-390 22,-384 22,-384 22,-372 22,-372 22,-366 28,-360 34,-360 34,-360 87,-360 87,-360 93,-360 99,-366 99,-372 99,-372 99,-384 99,-384 99,-390 93,-396 87,-396"/>
<text text-anchor="middle" x="60.5" y="-375.5" font-family="sans" font-size="10.00">bzip_to_gzip</text>
</g>
<!-- 22&#45;&gt;17 -->
<g id="edge26" class="edge">
<title>22&#45;&gt;17</title>
<path fill="none" stroke="grey" stroke-width="2" d="M60.75,-359.7C60.86,-351.98 60.99,-342.71 61.11,-334.11"/>
<polygon fill="grey" stroke="grey" stroke-width="2" points="64.61,-334.15 61.26,-324.1 57.61,-334.05 64.61,-334.15"/>
</g>
<!-- 23 -->
<g id="node24" class="node">
<title>23</title>
<path fill="none" stroke="#d6d856" stroke-width="2" stroke-dasharray="5,2" d="M225,-396C225,-396 172,-396 172,-396 166,-396 160,-390 160,-384 160,-384 160,-372 160,-372 160,-366 166,-360 172,-360 172,-360 225,-360 225,-360 231,-360 237,-366 237,-372 237,-372 237,-384 237,-384 237,-390 231,-396 225,-396"/>
<text text-anchor="middle" x="198.5" y="-375.5" font-family="sans" font-size="10.00">bzip_to_gzip</text>
</g>
<!-- 23&#45;&gt;18 -->
<g id="edge27" class="edge">
<title>23&#45;&gt;18</title>
<path fill="none" stroke="grey" stroke-width="2" d="M198.5,-359.7C198.5,-351.98 198.5,-342.71 198.5,-334.11"/>
<polygon fill="grey" stroke="grey" stroke-width="2" points="202,-334.1 198.5,-324.1 195,-334.1 202,-334.1"/>
</g>
<!-- 24 -->
<g id="node25" class="node">
<title>24</title>
<path fill="none" stroke="#d6d856" stroke-width="2" stroke-dasharray="5,2" d="M516,-396C516,-396 463,-396 463,-396 457,-396 451,-390 451,-384 451,-384 451,-372 451,-372 451,-366 457,-360 463,-360 463,-360 516,-360 516,-360 522,-360 528,-366 528,-372 528,-372 528,-384 528,-384 528,-390 522,-396 516,-396"/>
<text text-anchor="middle" x="489.5" y="-375.5" font-family="sans" font-size="10.00">bzip_to_gzip</text>
</g>
<!-- 24&#45;&gt;19 -->
<g id="edge28" class="edge">
<title>24&#45;&gt;19</title>
<path fill="none" stroke="grey" stroke-width="2" d="M489.99,-359.7C490.21,-351.98 490.48,-342.71 490.73,-334.11"/>
<polygon fill="grey" stroke="grey" stroke-width="2" points="494.22,-334.2 491.01,-324.1 487.23,-334 494.22,-334.2"/>
</g>
<!-- 25 -->
<g id="node26" class="node">
<title>25</title>
<path fill="none" stroke="#d6d856" stroke-width="2" stroke-dasharray="5,2" d="M654,-396C654,-396 601,-396 601,-396 595,-396 589,-390 589,-384 589,-384 589,-372 589,-372 589,-366 595,-360 601,-360 601,-360 654,-360 654,-360 660,-360 666,-366 666,-372 666,-372 666,-384 666,-384 666,-390 660,-396 654,-396"/>
<text text-anchor="middle" x="627.5" y="-375.5" font-family="sans" font-size="10.00">bzip_to_gzip</text>
</g>
<!-- 25&#45;&gt;20 -->
<g id="edge29" class="edge">
<title>25&#45;&gt;20</title>
<path fill="none" stroke="grey" stroke-width="2" d="M627.5,-359.7C627.5,-351.98 627.5,-342.71 627.5,-334.11"/>
<polygon fill="grey" stroke="grey" stroke-width="2" points="631,-334.1 627.5,-324.1 624,-334.1 631,-334.1"/>
</g>
<!-- 26 -->
<g id="node27" class="node">
<title>26</title>
<path fill="none" stroke="#d6d856" stroke-width="2" stroke-dasharray="5,2" d="M792,-396C792,-396 739,-396 739,-396 733,-396 727,-390 727,-384 727,-384 727,-372 727,-372 727,-366 733,-360 739,-360 739,-360 792,-360 792,-360 798,-360 804,-366 804,-372 804,-372 804,-384 804,-384 804,-390 798,-396 792,-396"/>
<text text-anchor="middle" x="765.5" y="-375.5" font-family="sans" font-size="10.00">bzip_to_gzip</text>
</g>
<!-- 26&#45;&gt;21 -->
<g id="edge30" class="edge">
<title>26&#45;&gt;21</title>
<path fill="none" stroke="grey" stroke-width="2" d="M764.51,-359.7C764.07,-351.98 763.54,-342.71 763.05,-334.11"/>
<polygon fill="grey" stroke="grey" stroke-width="2" points="766.54,-333.89 762.48,-324.1 759.55,-334.29 766.54,-333.89"/>
</g>
<!-- 27 -->
<g id="node28" class="node">
<title>27</title>
<path fill="none" stroke="#59d856" stroke-width="2" stroke-dasharray="5,2" d="M109,-468C109,-468 12,-468 12,-468 6,-468 0,-462 0,-456 0,-456 0,-444 0,-444 0,-438 6,-432 12,-432 12,-432 109,-432 109,-432 115,-432 121,-438 121,-444 121,-444 121,-456 121,-456 121,-462 115,-468 109,-468"/>
<text text-anchor="middle" x="60.5" y="-447.5" font-family="sans" font-size="10.00">uncompress_genome</text>
</g>
<!-- 27&#45;&gt;22 -->
<g id="edge31" class="edge">
<title>27&#45;&gt;22</title>
<path fill="none" stroke="grey" stroke-width="2" d="M60.5,-431.7C60.5,-423.98 60.5,-414.71 60.5,-406.11"/>
<polygon fill="grey" stroke="grey" stroke-width="2" points="64,-406.1 60.5,-396.1 57,-406.1 64,-406.1"/>
</g>
<!-- 28 -->
<g id="node29" class="node">
<title>28</title>
<path fill="none" stroke="#59d856" stroke-width="2" stroke-dasharray="5,2" d="M248,-468C248,-468 151,-468 151,-468 145,-468 139,-462 139,-456 139,-456 139,-444 139,-444 139,-438 145,-432 151,-432 151,-432 248,-432 248,-432 254,-432 260,-438 260,-444 260,-444 260,-456 260,-456 260,-462 254,-468 248,-468"/>
<text text-anchor="middle" x="199.5" y="-447.5" font-family="sans" font-size="10.00">uncompress_genome</text>
</g>
<!-- 28&#45;&gt;23 -->
<g id="edge32" class="edge">
<title>28&#45;&gt;23</title>
<path fill="none" stroke="grey" stroke-width="2" d="M199.25,-431.7C199.14,-423.98 199.01,-414.71 198.89,-406.11"/>
<polygon fill="grey" stroke="grey" stroke-width="2" points="202.39,-406.05 198.74,-396.1 195.39,-406.15 202.39,-406.05"/>
</g>
<!-- 29 -->
<g id="node30" class="node">
<title>29</title>
<path fill="none" stroke="#59d856" stroke-width="2" stroke-dasharray="5,2" d="M537,-468C537,-468 440,-468 440,-468 434,-468 428,-462 428,-456 428,-456 428,-444 428,-444 428,-438 434,-432 440,-432 440,-432 537,-432 537,-432 543,-432 549,-438 549,-444 549,-444 549,-456 549,-456 549,-462 543,-468 537,-468"/>
<text text-anchor="middle" x="488.5" y="-447.5" font-family="sans" font-size="10.00">uncompress_genome</text>
</g>
<!-- 29&#45;&gt;24 -->
<g id="edge33" class="edge">
<title>29&#45;&gt;24</title>
<path fill="none" stroke="grey" stroke-width="2" d="M488.75,-431.7C488.86,-423.98 488.99,-414.71 489.11,-406.11"/>
<polygon fill="grey" stroke="grey" stroke-width="2" points="492.61,-406.15 489.26,-396.1 485.61,-406.05 492.61,-406.15"/>
</g>
<!-- 30 -->
<g id="node31" class="node">
<title>30</title>
<path fill="none" stroke="#59d856" stroke-width="2" stroke-dasharray="5,2" d="M676,-468C676,-468 579,-468 579,-468 573,-468 567,-462 567,-456 567,-456 567,-444 567,-444 567,-438 573,-432 579,-432 579,-432 676,-432 676,-432 682,-432 688,-438 688,-444 688,-444 688,-456 688,-456 688,-462 682,-468 676,-468"/>
<text text-anchor="middle" x="627.5" y="-447.5" font-family="sans" font-size="10.00">uncompress_genome</text>
</g>
<!-- 30&#45;&gt;25 -->
<g id="edge34" class="edge">
<title>30&#45;&gt;25</title>
<path fill="none" stroke="grey" stroke-width="2" d="M627.5,-431.7C627.5,-423.98 627.5,-414.71 627.5,-406.11"/>
<polygon fill="grey" stroke="grey" stroke-width="2" points="631,-406.1 627.5,-396.1 624,-406.1 631,-406.1"/>
</g>
<!-- 31 -->
<g id="node32" class="node">
<title>31</title>
<path fill="none" stroke="#59d856" stroke-width="2" stroke-dasharray="5,2" d="M815,-468C815,-468 718,-468 718,-468 712,-468 706,-462 706,-456 706,-456 706,-444 706,-444 706,-438 712,-432 718,-432 718,-432 815,-432 815,-432 821,-432 827,-438 827,-444 827,-444 827,-456 827,-456 827,-462 821,-468 815,-468"/>
<text text-anchor="middle" x="766.5" y="-447.5" font-family="sans" font-size="10.00">uncompress_genome</text>
</g>
<!-- 31&#45;&gt;26 -->
<g id="edge35" class="edge">
<title>31&#45;&gt;26</title>
<path fill="none" stroke="grey" stroke-width="2" d="M766.25,-431.7C766.14,-423.98 766.01,-414.71 765.89,-406.11"/>
<polygon fill="grey" stroke="grey" stroke-width="2" points="769.39,-406.05 765.74,-396.1 762.39,-406.15 769.39,-406.05"/>
</g>
<!-- 32 -->
<g id="node33" class="node">
<title>32</title>
<path fill="none" stroke="#d88556" stroke-width="2" stroke-dasharray="5,2" d="M102,-540C102,-540 19,-540 19,-540 13,-540 7,-534 7,-528 7,-528 7,-516 7,-516 7,-510 13,-504 19,-504 19,-504 102,-504 102,-504 108,-504 114,-510 114,-516 114,-516 114,-528 114,-528 114,-534 108,-540 102,-540"/>
<text text-anchor="middle" x="60.5" y="-525" font-family="sans" font-size="10.00">download_data</text>
<text text-anchor="middle" x="60.5" y="-514" font-family="sans" font-size="10.00">sample: SM&#45;76C9Y</text>
</g>
<!-- 32&#45;&gt;27 -->
<g id="edge36" class="edge">
<title>32&#45;&gt;27</title>
<path fill="none" stroke="grey" stroke-width="2" d="M60.5,-503.7C60.5,-495.98 60.5,-486.71 60.5,-478.11"/>
<polygon fill="grey" stroke="grey" stroke-width="2" points="64,-478.1 60.5,-468.1 57,-478.1 64,-478.1"/>
</g>
<!-- 33 -->
<g id="node34" class="node">
<title>33</title>
<path fill="none" stroke="#d88556" stroke-width="2" stroke-dasharray="5,2" d="M238,-540C238,-540 161,-540 161,-540 155,-540 149,-534 149,-528 149,-528 149,-516 149,-516 149,-510 155,-504 161,-504 161,-504 238,-504 238,-504 244,-504 250,-510 250,-516 250,-516 250,-528 250,-528 250,-534 244,-540 238,-540"/>
<text text-anchor="middle" x="199.5" y="-525" font-family="sans" font-size="10.00">download_data</text>
<text text-anchor="middle" x="199.5" y="-514" font-family="sans" font-size="10.00">sample: SM&#45;9SIJC</text>
</g>
<!-- 33&#45;&gt;28 -->
<g id="edge37" class="edge">
<title>33&#45;&gt;28</title>
<path fill="none" stroke="grey" stroke-width="2" d="M199.5,-503.7C199.5,-495.98 199.5,-486.71 199.5,-478.11"/>
<polygon fill="grey" stroke="grey" stroke-width="2" points="203,-478.1 199.5,-468.1 196,-478.1 203,-478.1"/>
</g>
<!-- 34 -->
<g id="node35" class="node">
<title>34</title>
<path fill="none" stroke="#d88556" stroke-width="2" stroke-dasharray="5,2" d="M530,-540C530,-540 447,-540 447,-540 441,-540 435,-534 435,-528 435,-528 435,-516 435,-516 435,-510 441,-504 447,-504 447,-504 530,-504 530,-504 536,-504 542,-510 542,-516 542,-516 542,-528 542,-528 542,-534 536,-540 530,-540"/>
<text text-anchor="middle" x="488.5" y="-525" font-family="sans" font-size="10.00">download_data</text>
<text text-anchor="middle" x="488.5" y="-514" font-family="sans" font-size="10.00">sample: SM&#45;7CP39</text>
</g>
<!-- 34&#45;&gt;29 -->
<g id="edge38" class="edge">
<title>34&#45;&gt;29</title>
<path fill="none" stroke="grey" stroke-width="2" d="M488.5,-503.7C488.5,-495.98 488.5,-486.71 488.5,-478.11"/>
<polygon fill="grey" stroke="grey" stroke-width="2" points="492,-478.1 488.5,-468.1 485,-478.1 492,-478.1"/>
</g>
<!-- 35 -->
<g id="node36" class="node">
<title>35</title>
<path fill="none" stroke="#d88556" stroke-width="2" stroke-dasharray="5,2" d="M670.5,-540C670.5,-540 584.5,-540 584.5,-540 578.5,-540 572.5,-534 572.5,-528 572.5,-528 572.5,-516 572.5,-516 572.5,-510 578.5,-504 584.5,-504 584.5,-504 670.5,-504 670.5,-504 676.5,-504 682.5,-510 682.5,-516 682.5,-516 682.5,-528 682.5,-528 682.5,-534 676.5,-540 670.5,-540"/>
<text text-anchor="middle" x="627.5" y="-525" font-family="sans" font-size="10.00">download_data</text>
<text text-anchor="middle" x="627.5" y="-514" font-family="sans" font-size="10.00">sample: SM&#45;7M8RR</text>
</g>
<!-- 35&#45;&gt;30 -->
<g id="edge39" class="edge">
<title>35&#45;&gt;30</title>
<path fill="none" stroke="grey" stroke-width="2" d="M627.5,-503.7C627.5,-495.98 627.5,-486.71 627.5,-478.11"/>
<polygon fill="grey" stroke="grey" stroke-width="2" points="631,-478.1 627.5,-468.1 624,-478.1 631,-478.1"/>
</g>
<!-- 36 -->
<g id="node37" class="node">
<title>36</title>
<path fill="none" stroke="#d88556" stroke-width="2" stroke-dasharray="5,2" d="M810.5,-540C810.5,-540 722.5,-540 722.5,-540 716.5,-540 710.5,-534 710.5,-528 710.5,-528 710.5,-516 710.5,-516 710.5,-510 716.5,-504 722.5,-504 722.5,-504 810.5,-504 810.5,-504 816.5,-504 822.5,-510 822.5,-516 822.5,-516 822.5,-528 822.5,-528 822.5,-534 816.5,-540 810.5,-540"/>
<text text-anchor="middle" x="766.5" y="-525" font-family="sans" font-size="10.00">download_data</text>
<text text-anchor="middle" x="766.5" y="-514" font-family="sans" font-size="10.00">sample: SM&#45;9QMNE</text>
</g>
<!-- 36&#45;&gt;31 -->
<g id="edge40" class="edge">
<title>36&#45;&gt;31</title>
<path fill="none" stroke="grey" stroke-width="2" d="M766.5,-503.7C766.5,-495.98 766.5,-486.71 766.5,-478.11"/>
<polygon fill="grey" stroke="grey" stroke-width="2" points="770,-478.1 766.5,-468.1 763,-478.1 770,-478.1"/>
</g>
</g>
</svg>
